<?xml version="1.0" encoding="utf-8"?>
<!-- Generator: Adobe Illustrator 23.0.5, SVG Export Plug-In . SVG Version: 6.00 Build 0)  -->
<svg version="1.1" id="Layer_1" xmlns="http://www.w3.org/2000/svg" xmlns:xlink="http://www.w3.org/1999/xlink" x="0px" y="0px"
	 viewBox="0 0 841.89 595.28" style="enable-background:new 0 0 841.89 595.28;" xml:space="preserve">
<style type="text/css">
	.st0{fill:#FFFFFF;}
</style>
<g>
	<path class="st0" d="M147.57,160.33c-2.03,3.57-3.87,6.66-5.58,9.83c-9.02,16.73-16.4,34.11-20.63,52.72
		c-2.47,10.86-3.63,21.86-2.89,32.97c2.11,31.5,22.81,55.07,52.06,61.45c10.55,2.3,21.21,2.97,32.01,2.6
		c20.73-0.7,40.66-5.55,60.55-10.88c35.99-9.64,72.03-19.13,108.04-28.7c52.91-14.06,105.82-28.15,158.73-42.21
		c70.5-18.74,141.01-37.48,211.51-56.22c20.7-5.5,41.39-11,62.09-16.5c0.78-0.21,1.56-0.59,2.52-0.41
		c-0.55,0.74-1.28,0.89-1.92,1.16c-42.21,18.09-84.43,36.16-126.65,54.23c-44.27,18.95-88.54,37.89-132.81,56.83
		c-44.93,19.23-89.87,38.45-134.8,57.67c-46.74,20-93.47,40.01-140.22,59.98c-22.35,9.55-44.59,19.36-67.83,26.66
		c-16.15,5.07-32.52,9.16-49.28,11.57c-8.11,1.17-16.27,1.87-24.46,1.89c-18.58,0.03-36.69-2.6-52.99-12.15
		c-21.62-12.66-34.89-31.27-38.26-56.41c-2.3-17.19,0.24-33.95,5.01-50.46c6.23-21.58,16.06-41.5,27.99-60.44
		c13.07-20.73,28.34-39.8,44.26-58.38c10.11-11.79,20.62-23.23,31.02-34.76C145.64,161.7,146.13,160.88,147.57,160.33z"/>
</g>
</svg>
